<svg width="46" height="46" viewBox="0 0 46 46" fill="none" xmlns="http://www.w3.org/2000/svg">
<path d="M40.2507 7.66699H5.75065C5.24232 7.66699 4.75481 7.86893 4.39536 8.22837C4.03592 8.58782 3.83398 9.07533 3.83398 9.58366V36.417C3.83398 36.9253 4.03592 37.4128 4.39536 37.7723C4.75481 38.1317 5.24232 38.3337 5.75065 38.3337H40.2507C40.759 38.3337 41.2465 38.1317 41.6059 37.7723C41.9654 37.4128 42.1673 36.9253 42.1673 36.417V9.58366C42.1673 9.07533 41.9654 8.58782 41.6059 8.22837C41.2465 7.86893 40.759 7.66699 40.2507 7.66699V7.66699ZM38.334 28.7503C36.809 28.7503 35.3465 29.3561 34.2681 30.4345C33.1898 31.5128 32.584 32.9753 32.584 34.5003H13.4173C13.4173 32.9753 12.8115 31.5128 11.7332 30.4345C10.6548 29.3561 9.19231 28.7503 7.66732 28.7503V17.2503C9.19231 17.2503 10.6548 16.6445 11.7332 15.5662C12.8115 14.4879 13.4173 13.0253 13.4173 11.5003H32.584C32.584 13.0253 33.1898 14.4879 34.2681 15.5662C35.3465 16.6445 36.809 17.2503 38.334 17.2503V28.7503Z" fill="#01B8AE"/>
<path d="M23.0007 15.333C18.7725 15.333 15.334 18.7715 15.334 22.9997C15.334 27.2278 18.7725 30.6663 23.0007 30.6663C27.2288 30.6663 30.6673 27.2278 30.6673 22.9997C30.6673 18.7715 27.2288 15.333 23.0007 15.333ZM23.0007 26.833C20.8866 26.833 19.1673 25.1138 19.1673 22.9997C19.1673 20.8856 20.8866 19.1663 23.0007 19.1663C25.1147 19.1663 26.834 20.8856 26.834 22.9997C26.834 25.1138 25.1147 26.833 23.0007 26.833Z" fill="#01B8AE"/>
</svg>
