<svg width="113" height="48" viewBox="0 0 113 48" fill="none" xmlns="http://www.w3.org/2000/svg">
<rect width="113" height="48" rx="8" fill="#01B8AE"/>
<path d="M26.25 17.75H43.4875C43.8368 17.75 44.1822 17.8232 44.5014 17.9649C44.8207 18.1066 45.1067 18.3135 45.3411 18.5725C45.5754 18.8315 45.7529 19.1367 45.8621 19.4685C45.9713 19.8002 46.0098 20.1512 45.975 20.4988L45.225 27.9987C45.1633 28.6156 44.8746 29.1876 44.415 29.6036C43.9553 30.0196 43.3575 30.25 42.7375 30.25H30.8C30.2218 30.2502 29.6615 30.0501 29.2143 29.6836C28.7671 29.3171 28.4608 28.8069 28.3475 28.24L26.25 17.75Z" stroke="white" stroke-width="2" stroke-linejoin="round"/>
<path d="M40 35.25H42.5M26.25 17.75L25.2375 13.6962C25.1698 13.4259 25.0137 13.186 24.794 13.0146C24.5743 12.8431 24.3037 12.75 24.025 12.75H22.5L26.25 17.75ZM30 35.25H32.5H30Z" stroke="white" stroke-width="2" stroke-linecap="round" stroke-linejoin="round"/>
<path d="M60.7188 24.3359C60.7188 22.3255 61.2578 20.776 62.3359 19.6875C63.2734 18.7396 64.4661 18.2656 65.9141 18.2656C67.8516 18.2656 69.2682 18.901 70.1641 20.1719C70.6589 20.8854 70.9245 21.6016 70.9609 22.3203H68.5547C68.3984 21.7682 68.1979 21.3516 67.9531 21.0703C67.5156 20.5703 66.8672 20.3203 66.0078 20.3203C65.1328 20.3203 64.4427 20.6745 63.9375 21.3828C63.4323 22.0859 63.1797 23.0833 63.1797 24.375C63.1797 25.6667 63.4453 26.6354 63.9766 27.2812C64.513 27.9219 65.1927 28.2422 66.0156 28.2422C66.8594 28.2422 67.5026 27.9661 67.9453 27.4141C68.1901 27.1172 68.3932 26.6719 68.5547 26.0781H70.9375C70.7292 27.3333 70.1953 28.3542 69.3359 29.1406C68.4818 29.9271 67.3854 30.3203 66.0469 30.3203C64.3906 30.3203 63.0885 29.7891 62.1406 28.7266C61.1927 27.6589 60.7188 26.1953 60.7188 24.3359ZM77.2969 25.8594C77.1562 25.9479 77.013 26.0208 76.8672 26.0781C76.7266 26.1302 76.5312 26.1797 76.2812 26.2266L75.7812 26.3203C75.3125 26.4036 74.9766 26.5052 74.7734 26.625C74.4297 26.8281 74.2578 27.1432 74.2578 27.5703C74.2578 27.9505 74.362 28.2266 74.5703 28.3984C74.7839 28.5651 75.0417 28.6484 75.3438 28.6484C75.8229 28.6484 76.263 28.5078 76.6641 28.2266C77.0703 27.9453 77.2812 27.4323 77.2969 26.6875V25.8594ZM75.9453 24.8203C76.3568 24.7682 76.651 24.7031 76.8281 24.625C77.1458 24.4896 77.3047 24.2786 77.3047 23.9922C77.3047 23.6432 77.1823 23.4036 76.9375 23.2734C76.6979 23.138 76.3438 23.0703 75.875 23.0703C75.349 23.0703 74.9766 23.2005 74.7578 23.4609C74.6016 23.6536 74.4974 23.9141 74.4453 24.2422H72.2969C72.3438 23.4974 72.5521 22.8854 72.9219 22.4062C73.5104 21.6562 74.5208 21.2812 75.9531 21.2812C76.8854 21.2812 77.7135 21.4661 78.4375 21.8359C79.1615 22.2057 79.5234 22.9036 79.5234 23.9297V27.8359C79.5234 28.1068 79.5286 28.4349 79.5391 28.8203C79.5547 29.112 79.599 29.3099 79.6719 29.4141C79.7448 29.5182 79.8542 29.6042 80 29.6719V30H77.5781C77.5104 29.8281 77.4635 29.6667 77.4375 29.5156C77.4115 29.3646 77.3906 29.1927 77.375 29C77.0677 29.3333 76.7135 29.6172 76.3125 29.8516C75.8333 30.1276 75.2917 30.2656 74.6875 30.2656C73.9167 30.2656 73.2786 30.0469 72.7734 29.6094C72.2734 29.1667 72.0234 28.5417 72.0234 27.7344C72.0234 26.6875 72.4271 25.9297 73.2344 25.4609C73.6771 25.2057 74.3281 25.0234 75.1875 24.9141L75.9453 24.8203ZM86.1328 21.2812C86.1745 21.2812 86.2083 21.2839 86.2344 21.2891C86.2656 21.2891 86.3307 21.2917 86.4297 21.2969V23.5781C86.2891 23.5625 86.1641 23.5521 86.0547 23.5469C85.9453 23.5417 85.8568 23.5391 85.7891 23.5391C84.8932 23.5391 84.2917 23.8307 83.9844 24.4141C83.8125 24.7422 83.7266 25.2474 83.7266 25.9297V30H81.4844V21.4844H83.6094V22.9688C83.9531 22.401 84.2526 22.013 84.5078 21.8047C84.9245 21.4557 85.4661 21.2812 86.1328 21.2812ZM86.8672 23.1484V21.5625H88.0547V19.1875H90.2578V21.5625H91.6406V23.1484H90.2578V27.6484C90.2578 27.9974 90.3021 28.2161 90.3906 28.3047C90.4792 28.388 90.75 28.4297 91.2031 28.4297C91.2708 28.4297 91.3411 28.4297 91.4141 28.4297C91.4922 28.4245 91.5677 28.4193 91.6406 28.4141V30.0781L90.5859 30.1172C89.5339 30.1536 88.8151 29.9714 88.4297 29.5703C88.1797 29.3151 88.0547 28.9219 88.0547 28.3906V23.1484H86.8672Z" fill="white"/>
</svg>
